<?xml version="1.0" encoding="UTF-8" standalone="no"?>
<!DOCTYPE svg PUBLIC "-//W3C//DTD SVG 1.1//EN"
 "http://www.w3.org/Graphics/SVG/1.1/DTD/svg11.dtd">
<!-- Generated by graphviz version 2.29.20121107.0545 (20121107.0545)
 -->
<!-- Title: Perl Pages: 1 -->
<svg width="108pt" height="166pt"
 viewBox="0.00 0.00 108.00 166.00" xmlns="http://www.w3.org/2000/svg" xmlns:xlink="http://www.w3.org/1999/xlink">
<g id="graph0" class="graph" transform="scale(1 1) rotate(0) translate(4 162)">
<title>Perl</title>
<polygon fill="white" stroke="white" points="-4,5 -4,-162 105,-162 105,5 -4,5"/>
<g id="clust1" class="cluster"><title>cluster.1</title>
<polygon fill="red" stroke="black" points="8,-8 8,-150 92,-150 92,-8 8,-8"/>
</g>
<!-- node.1 -->
<g id="node1" class="node"><title>node.1</title>
<polygon fill="none" stroke="green" points="76.25,-141.5 23.75,-141.5 23.75,-88.5 76.25,-88.5 76.25,-141.5"/>
<text text-anchor="middle" x="50" y="-111.3" font-family="Times,serif" font-size="14.00">node.1</text>
</g>
<!-- node.2 -->
<g id="node2" class="node"><title>node.2</title>
<ellipse fill="none" stroke="black" cx="50" cy="-34" rx="34.1708" ry="18"/>
<text text-anchor="middle" x="50" y="-30.3" font-family="Times,serif" font-size="14.00">node.2</text>
</g>
<!-- node.1&#45;&gt;node.2 -->
<g id="edge1" class="edge"><title>node.1&#45;&gt;node.2</title>
<path fill="none" stroke="white" d="M50,-88.1324C50,-79.906 50,-70.7803 50,-62.4464"/>
<polygon fill="white" stroke="white" points="53.5001,-62.4408 50,-52.4408 46.5001,-62.4408 53.5001,-62.4408"/>
</g>
</g>
</svg>
