<?xml version="1.0" encoding="UTF-8" standalone="no"?>
<!DOCTYPE svg PUBLIC "-//W3C//DTD SVG 1.1//EN"
 "http://www.w3.org/Graphics/SVG/1.1/DTD/svg11.dtd">
<!-- Generated by graphviz version 2.26.3 (20100126.1600)
 -->
<!-- Title: Perl Pages: 1 -->
<svg width="114pt" height="168pt"
 viewBox="0.00 0.00 114.00 168.00" xmlns="http://www.w3.org/2000/svg" xmlns:xlink="http://www.w3.org/1999/xlink">
<g id="graph1" class="graph" transform="scale(1 1) rotate(0) translate(4 164)">
<title>Perl</title>
<polygon fill="white" stroke="white" points="-4,5 -4,-164 111,-164 111,5 -4,5"/>
<g id="graph2" class="cluster"><title>cluster.1:</title>
<polygon fill="red" stroke="black" points="8,-8 8,-152 98,-152 98,-8 8,-8"/>
</g>
<!-- node.1 -->
<g id="node2" class="node"><title>node.1</title>
<polygon fill="none" stroke="green" points="79,-143.5 27,-143.5 27,-90.5 79,-90.5 79,-143.5"/>
<text text-anchor="middle" x="53" y="-113.9" font-family="Times Roman,serif" font-size="14.00">node.1</text>
</g>
<!-- node.2 -->
<g id="node3" class="node"><title>node.2</title>
<ellipse fill="none" stroke="black" cx="53" cy="-35" rx="36.977" ry="19.0919"/>
<text text-anchor="middle" x="53" y="-31.9" font-family="Times Roman,serif" font-size="14.00">node.2</text>
</g>
<!-- node.1&#45;&gt;node.2 -->
<g id="edge3" class="edge"><title>node.1&#45;&gt;node.2</title>
<path fill="none" stroke="white" d="M53,-90.1501C53,-81.874 53,-72.7211 53,-64.2895"/>
<polygon fill="white" stroke="white" points="56.5001,-64.1154 53,-54.1154 49.5001,-64.1154 56.5001,-64.1154"/>
</g>
</g>
</svg>
