<?xml version="1.0" encoding="UTF-8" standalone="no"?>
<!DOCTYPE svg PUBLIC "-//W3C//DTD SVG 1.1//EN"
 "http://www.w3.org/Graphics/SVG/1.1/DTD/svg11.dtd">
<!-- Generated by graphviz version 2.29.20121107.0545 (20121107.0545)
 -->
<!-- Title: Perl Pages: 1 -->
<svg width="528pt" height="132pt"
 viewBox="0.00 0.00 528.00 132.00" xmlns="http://www.w3.org/2000/svg" xmlns:xlink="http://www.w3.org/1999/xlink">
<g id="graph0" class="graph" transform="scale(1 1) rotate(0) translate(4 128)">
<title>Perl</title>
<polygon fill="white" stroke="white" points="-4,5 -4,-128 525,-128 525,5 -4,5"/>
<!-- node.1 -->
<g id="node1" class="node"><title>node.1</title>
<ellipse fill="none" stroke="green" cx="34" cy="-106" rx="34.1708" ry="18"/>
<text text-anchor="middle" x="34" y="-102.3" font-family="Times,serif" font-size="14.00">node.1</text>
</g>
<!-- node.2 -->
<g id="node2" class="node"><title>node.2</title>
<ellipse fill="none" stroke="blue" cx="34" cy="-18" rx="34.1708" ry="18"/>
<text text-anchor="middle" x="34" y="-14.3" font-family="Times,serif" font-size="14.00">node.2</text>
</g>
<!-- node.1&#45;&gt;node.2 -->
<g id="edge1" class="edge"><title>node.1&#45;&gt;node.2</title>
<path fill="none" stroke="maroon" d="M34,-87.5966C34,-75.7459 34,-59.8169 34,-46.2917"/>
<polygon fill="maroon" stroke="maroon" points="30,-36.084 38,-36.084 38.0001,-44.084 30.0001,-44.084 30,-36.084"/>
<polyline fill="none" stroke="maroon" points="34.0001,-44.084 34.0001,-46.084 "/>
<text text-anchor="middle" x="44.5" y="-58.3" font-family="Times,serif" font-size="14.00">box</text>
</g>
<!-- node.3 -->
<g id="node3" class="node"><title>node.3</title>
<ellipse fill="none" stroke="green" cx="121" cy="-106" rx="34.1708" ry="18"/>
<text text-anchor="middle" x="121" y="-102.3" font-family="Times,serif" font-size="14.00">node.3</text>
</g>
<!-- node.4 -->
<g id="node4" class="node"><title>node.4</title>
<ellipse fill="none" stroke="blue" cx="121" cy="-18" rx="34.1708" ry="18"/>
<text text-anchor="middle" x="121" y="-14.3" font-family="Times,serif" font-size="14.00">node.4</text>
</g>
<!-- node.3&#45;&gt;node.4 -->
<g id="edge2" class="edge"><title>node.3&#45;&gt;node.4</title>
<path fill="none" stroke="maroon" d="M121,-87.5966C121,-75.7459 121,-59.8169 121,-46.2917"/>
<polygon fill="maroon" stroke="maroon" points="121,-46.084 125.5,-36.084 121,-41.084 121,-36.084 121,-36.084 121,-36.084 121,-41.084 116.5,-36.0841 121,-46.084 121,-46.084"/>
<text text-anchor="middle" x="135" y="-58.3" font-family="Times,serif" font-size="14.00">crow</text>
</g>
<!-- node.5 -->
<g id="node5" class="node"><title>node.5</title>
<ellipse fill="none" stroke="green" cx="208" cy="-106" rx="34.1708" ry="18"/>
<text text-anchor="middle" x="208" y="-102.3" font-family="Times,serif" font-size="14.00">node.5</text>
</g>
<!-- node.6 -->
<g id="node6" class="node"><title>node.6</title>
<ellipse fill="none" stroke="blue" cx="208" cy="-18" rx="34.1708" ry="18"/>
<text text-anchor="middle" x="208" y="-14.3" font-family="Times,serif" font-size="14.00">node.6</text>
</g>
<!-- node.5&#45;&gt;node.6 -->
<g id="edge3" class="edge"><title>node.5&#45;&gt;node.6</title>
<path fill="none" stroke="maroon" d="M208,-87.5966C208,-76.3325 208,-61.384 208,-48.3173"/>
<polygon fill="maroon" stroke="maroon" points="208,-48.084 204,-42.084 208,-36.084 212,-42.084 208,-48.084"/>
<text text-anchor="middle" x="232.5" y="-58.3" font-family="Times,serif" font-size="14.00">diamond</text>
</g>
<!-- node.7 -->
<g id="node7" class="node"><title>node.7</title>
<ellipse fill="none" stroke="green" cx="295" cy="-106" rx="34.1708" ry="18"/>
<text text-anchor="middle" x="295" y="-102.3" font-family="Times,serif" font-size="14.00">node.7</text>
</g>
<!-- node.8 -->
<g id="node8" class="node"><title>node.8</title>
<ellipse fill="none" stroke="blue" cx="295" cy="-18" rx="34.1708" ry="18"/>
<text text-anchor="middle" x="295" y="-14.3" font-family="Times,serif" font-size="14.00">node.8</text>
</g>
<!-- node.7&#45;&gt;node.8 -->
<g id="edge4" class="edge"><title>node.7&#45;&gt;node.8</title>
<path fill="none" stroke="maroon" d="M295,-87.5966C295,-78.5619 295,-67.1568 295,-56.2537"/>
<polygon fill="maroon" stroke="maroon" points="295,-36.084 299.5,-46.084 295,-41.084 295,-46.084 295,-46.084 295,-46.084 295,-41.084 290.5,-46.084 295,-36.084 295,-36.084"/>
<polygon fill="maroon" stroke="maroon" points="295,-46.084 299.5,-56.084 295,-51.084 295,-56.084 295,-56.084 295,-56.084 295,-51.084 290.5,-56.084 295,-46.084 295,-46.084"/>
<text text-anchor="middle" x="314" y="-58.3" font-family="Times,serif" font-size="14.00">veevee</text>
</g>
<!-- node.9 -->
<g id="node9" class="node"><title>node.9</title>
<ellipse fill="none" stroke="green" cx="386" cy="-106" rx="34.1708" ry="18"/>
<text text-anchor="middle" x="386" y="-102.3" font-family="Times,serif" font-size="14.00">node.9</text>
</g>
<!-- node.10 -->
<g id="node10" class="node"><title>node.10</title>
<ellipse fill="none" stroke="blue" cx="386" cy="-18" rx="38.4949" ry="18"/>
<text text-anchor="middle" x="386" y="-14.3" font-family="Times,serif" font-size="14.00">node.10</text>
</g>
<!-- node.9&#45;&gt;node.10 -->
<g id="edge5" class="edge"><title>node.9&#45;&gt;node.10</title>
<path fill="none" stroke="maroon" d="M386,-87.5966C386,-75.7459 386,-59.8169 386,-46.2917"/>
<polygon fill="maroon" stroke="maroon" points="381,-37.0841 391,-37.084 391,-39.084 381,-39.0841 381,-37.0841"/>
<polyline fill="none" stroke="maroon" points="386,-36.084 386,-41.084 "/>
<polygon fill="maroon" stroke="maroon" points="381,-42.0841 391,-42.084 391,-44.084 381,-44.0841 381,-42.0841"/>
<polyline fill="none" stroke="maroon" points="386,-41.084 386,-46.084 "/>
<text text-anchor="middle" x="402" y="-58.3" font-family="Times,serif" font-size="14.00">teetee</text>
</g>
<!-- node.11 -->
<g id="node11" class="node"><title>node.11</title>
<ellipse fill="none" stroke="green" cx="482" cy="-106" rx="38.4949" ry="18"/>
<text text-anchor="middle" x="482" y="-102.3" font-family="Times,serif" font-size="14.00">node.11</text>
</g>
<!-- node.12 -->
<g id="node12" class="node"><title>node.12</title>
<ellipse fill="none" stroke="blue" cx="482" cy="-18" rx="38.4949" ry="18"/>
<text text-anchor="middle" x="482" y="-14.3" font-family="Times,serif" font-size="14.00">node.12</text>
</g>
<!-- node.11&#45;&gt;node.12 -->
<g id="edge6" class="edge"><title>node.11&#45;&gt;node.12</title>
<path fill="none" stroke="maroon" d="M482,-87.5966C482,-75.1592 482,-58.2298 482,-44.3015"/>
<ellipse fill="none" stroke="maroon" cx="482" cy="-40.084" rx="4" ry="4"/>
<text text-anchor="middle" x="494.5" y="-58.3" font-family="Times,serif" font-size="14.00">odot</text>
</g>
</g>
</svg>
