<?xml version="1.0" encoding="UTF-8" standalone="no"?>
<!DOCTYPE svg PUBLIC "-//W3C//DTD SVG 1.1//EN"
 "http://www.w3.org/Graphics/SVG/1.1/DTD/svg11.dtd">
<!-- Generated by graphviz version 2.26.3 (20100126.1600)
 -->
<!-- Title: Perl Pages: 1 -->
<svg width="562pt" height="140pt"
 viewBox="0.00 0.00 562.00 140.00" xmlns="http://www.w3.org/2000/svg" xmlns:xlink="http://www.w3.org/1999/xlink">
<g id="graph1" class="graph" transform="scale(1 1) rotate(0) translate(4 136)">
<title>Perl</title>
<polygon fill="white" stroke="white" points="-4,5 -4,-136 559,-136 559,5 -4,5"/>
<!-- node.1 -->
<g id="node1" class="node"><title>node.1</title>
<ellipse fill="none" stroke="green" cx="37" cy="-113" rx="36.977" ry="19.0919"/>
<text text-anchor="middle" x="37" y="-109.9" font-family="Times Roman,serif" font-size="14.00">node.1</text>
</g>
<!-- node.2 -->
<g id="node2" class="node"><title>node.2</title>
<ellipse fill="none" stroke="blue" cx="37" cy="-19" rx="36.977" ry="19.0919"/>
<text text-anchor="middle" x="37" y="-15.9" font-family="Times Roman,serif" font-size="14.00">node.2</text>
</g>
<!-- node.1&#45;&gt;node.2 -->
<g id="edge2" class="edge"><title>node.1&#45;&gt;node.2</title>
<path fill="none" stroke="maroon" d="M37,-93.9777C37,-80.9407 37,-63.3883 37,-48.5438"/>
<polygon fill="maroon" stroke="maroon" points="33,-38.3167 41,-38.3166 41.0001,-46.3166 33.0001,-46.3167 33,-38.3167"/>
<polyline fill="none" stroke="maroon" points="37.0001,-46.3166 37.0001,-48.3166 "/>
<text text-anchor="middle" x="47.5" y="-62.9" font-family="Times Roman,serif" font-size="14.00">box</text>
</g>
<!-- node.3 -->
<g id="node3" class="node"><title>node.3</title>
<ellipse fill="none" stroke="green" cx="129" cy="-113" rx="36.977" ry="19.0919"/>
<text text-anchor="middle" x="129" y="-109.9" font-family="Times Roman,serif" font-size="14.00">node.3</text>
</g>
<!-- node.4 -->
<g id="node4" class="node"><title>node.4</title>
<ellipse fill="none" stroke="blue" cx="129" cy="-19" rx="36.977" ry="19.0919"/>
<text text-anchor="middle" x="129" y="-15.9" font-family="Times Roman,serif" font-size="14.00">node.4</text>
</g>
<!-- node.3&#45;&gt;node.4 -->
<g id="edge4" class="edge"><title>node.3&#45;&gt;node.4</title>
<path fill="none" stroke="maroon" d="M129,-93.9777C129,-80.9407 129,-63.3883 129,-48.5438"/>
<polygon fill="maroon" stroke="maroon" points="129,-48.3166 133.5,-38.3166 129,-43.3166 129,-38.3166 129,-38.3166 129,-38.3166 129,-43.3166 124.5,-38.3167 129,-48.3166 129,-48.3166"/>
<text text-anchor="middle" x="143" y="-62.9" font-family="Times Roman,serif" font-size="14.00">crow</text>
</g>
<!-- node.5 -->
<g id="node5" class="node"><title>node.5</title>
<ellipse fill="none" stroke="green" cx="221" cy="-113" rx="36.977" ry="19.0919"/>
<text text-anchor="middle" x="221" y="-109.9" font-family="Times Roman,serif" font-size="14.00">node.5</text>
</g>
<!-- node.6 -->
<g id="node6" class="node"><title>node.6</title>
<ellipse fill="none" stroke="blue" cx="221" cy="-19" rx="36.977" ry="19.0919"/>
<text text-anchor="middle" x="221" y="-15.9" font-family="Times Roman,serif" font-size="14.00">node.6</text>
</g>
<!-- node.5&#45;&gt;node.6 -->
<g id="edge6" class="edge"><title>node.5&#45;&gt;node.6</title>
<path fill="none" stroke="maroon" d="M221,-93.9777C221,-81.5736 221,-65.0818 221,-50.724"/>
<polygon fill="maroon" stroke="maroon" points="221,-50.3166 217,-44.3167 221,-38.3166 225,-44.3166 221,-50.3166"/>
<text text-anchor="middle" x="245.5" y="-62.9" font-family="Times Roman,serif" font-size="14.00">diamond</text>
</g>
<!-- node.7 -->
<g id="node7" class="node"><title>node.7</title>
<ellipse fill="none" stroke="green" cx="313" cy="-113" rx="36.977" ry="19.0919"/>
<text text-anchor="middle" x="313" y="-109.9" font-family="Times Roman,serif" font-size="14.00">node.7</text>
</g>
<!-- node.8 -->
<g id="node8" class="node"><title>node.8</title>
<ellipse fill="none" stroke="blue" cx="313" cy="-19" rx="36.977" ry="19.0919"/>
<text text-anchor="middle" x="313" y="-15.9" font-family="Times Roman,serif" font-size="14.00">node.8</text>
</g>
<!-- node.7&#45;&gt;node.8 -->
<g id="edge8" class="edge"><title>node.7&#45;&gt;node.8</title>
<path fill="none" stroke="maroon" d="M313,-93.9777C313,-83.7253 313,-70.6804 313,-58.3561"/>
<polygon fill="maroon" stroke="maroon" points="313,-38.3166 317.5,-48.3166 313,-43.3166 313,-48.3166 313,-48.3166 313,-48.3166 313,-43.3166 308.5,-48.3167 313,-38.3166 313,-38.3166"/>
<polygon fill="maroon" stroke="maroon" points="313,-48.3166 317.5,-58.3166 313,-53.3166 313,-58.3166 313,-58.3166 313,-58.3166 313,-53.3166 308.5,-58.3167 313,-48.3166 313,-48.3166"/>
<text text-anchor="middle" x="332" y="-62.9" font-family="Times Roman,serif" font-size="14.00">veevee</text>
</g>
<!-- node.9 -->
<g id="node9" class="node"><title>node.9</title>
<ellipse fill="none" stroke="green" cx="410" cy="-113" rx="36.977" ry="19.0919"/>
<text text-anchor="middle" x="410" y="-109.9" font-family="Times Roman,serif" font-size="14.00">node.9</text>
</g>
<!-- node.10 -->
<g id="node10" class="node"><title>node.10</title>
<ellipse fill="none" stroke="blue" cx="410" cy="-19" rx="41.9273" ry="19.0919"/>
<text text-anchor="middle" x="410" y="-15.9" font-family="Times Roman,serif" font-size="14.00">node.10</text>
</g>
<!-- node.9&#45;&gt;node.10 -->
<g id="edge10" class="edge"><title>node.9&#45;&gt;node.10</title>
<path fill="none" stroke="maroon" d="M410,-93.9777C410,-80.9407 410,-63.3883 410,-48.5438"/>
<polygon fill="maroon" stroke="maroon" points="405,-39.3167 415,-39.3166 415,-41.3166 405,-41.3167 405,-39.3167"/>
<polyline fill="none" stroke="maroon" points="410,-38.3166 410,-43.3166 "/>
<polygon fill="maroon" stroke="maroon" points="405,-44.3167 415,-44.3166 415,-46.3166 405,-46.3167 405,-44.3167"/>
<polyline fill="none" stroke="maroon" points="410,-43.3166 410,-48.3166 "/>
<text text-anchor="middle" x="426" y="-62.9" font-family="Times Roman,serif" font-size="14.00">teetee</text>
</g>
<!-- node.11 -->
<g id="node11" class="node"><title>node.11</title>
<ellipse fill="none" stroke="green" cx="512" cy="-113" rx="41.9273" ry="19.0919"/>
<text text-anchor="middle" x="512" y="-109.9" font-family="Times Roman,serif" font-size="14.00">node.11</text>
</g>
<!-- node.12 -->
<g id="node12" class="node"><title>node.12</title>
<ellipse fill="none" stroke="blue" cx="512" cy="-19" rx="41.9273" ry="19.0919"/>
<text text-anchor="middle" x="512" y="-15.9" font-family="Times Roman,serif" font-size="14.00">node.12</text>
</g>
<!-- node.11&#45;&gt;node.12 -->
<g id="edge12" class="edge"><title>node.11&#45;&gt;node.12</title>
<path fill="none" stroke="maroon" d="M512,-93.9777C512,-80.3079 512,-61.6735 512,-46.402"/>
<ellipse fill="none" stroke="maroon" cx="512" cy="-42.3166" rx="4" ry="4"/>
<text text-anchor="middle" x="524.5" y="-62.9" font-family="Times Roman,serif" font-size="14.00">odot</text>
</g>
</g>
</svg>
