<?xml version="1.0" encoding="UTF-8" standalone="no"?>
<!DOCTYPE svg PUBLIC "-//W3C//DTD SVG 1.1//EN"
 "http://www.w3.org/Graphics/SVG/1.1/DTD/svg11.dtd">
<!-- Generated by graphviz version 2.29.20121107.0545 (20121107.0545)
 -->
<!-- Title: Perl Pages: 1 -->
<svg width="130pt" height="188pt"
 viewBox="0.00 0.00 130.00 188.00" xmlns="http://www.w3.org/2000/svg" xmlns:xlink="http://www.w3.org/1999/xlink">
<g id="graph0" class="graph" transform="scale(1 1) rotate(0) translate(4 184)">
<title>Perl</title>
<polygon fill="white" stroke="white" points="-4,5 -4,-184 127,-184 127,5 -4,5"/>
<!-- Murrumbeena -->
<g id="node1" class="node"><title>Murrumbeena</title>
<ellipse fill="none" stroke="blue" cx="61" cy="-162" rx="61.6163" ry="18"/>
<text text-anchor="middle" x="61" y="-158.3" font-family="Times,serif" font-size="14.00">Murrumbeena</text>
</g>
<!-- Carnegie -->
<g id="node2" class="node"><title>Carnegie</title>
<ellipse fill="none" stroke="crimson" cx="61" cy="-90" rx="42.3701" ry="18"/>
<text text-anchor="middle" x="61" y="-86.3" font-family="Times,serif" font-size="14.00">Carnegie</text>
</g>
<!-- Murrumbeena&#45;&gt;Carnegie -->
<g id="edge1" class="edge"><title>Murrumbeena&#45;&gt;Carnegie</title>
<path fill="none" stroke="green" d="M55.1218,-144.055C54.3037,-136.346 54.0614,-127.027 54.3949,-118.364"/>
<polygon fill="green" stroke="green" points="57.8943,-118.491 55.0872,-108.275 50.9107,-118.012 57.8943,-118.491"/>
</g>
<!-- Murrumbeena&#45;&gt;Carnegie -->
<g id="edge2" class="edge"><title>Murrumbeena&#45;&gt;Carnegie</title>
<path fill="none" stroke="red" d="M66.8782,-144.055C67.6963,-136.346 67.9386,-127.027 67.6051,-118.364"/>
<polygon fill="red" stroke="red" points="71.0893,-118.012 66.9128,-108.275 64.1057,-118.491 71.0893,-118.012"/>
</g>
<!-- Chadstone -->
<g id="node3" class="node"><title>Chadstone</title>
<ellipse fill="none" stroke="blueviolet" cx="61" cy="-18" rx="48.1437" ry="18"/>
<text text-anchor="middle" x="61" y="-14.3" font-family="Times,serif" font-size="14.00">Chadstone</text>
</g>
<!-- Carnegie&#45;&gt;Chadstone -->
<g id="edge3" class="edge"><title>Carnegie&#45;&gt;Chadstone</title>
<path fill="none" stroke="brown" d="M61,-71.6966C61,-63.9827 61,-54.7125 61,-46.1124"/>
<polygon fill="brown" stroke="brown" points="64.5001,-46.1043 61,-36.1043 57.5001,-46.1044 64.5001,-46.1043"/>
</g>
</g>
</svg>
