<?xml version="1.0" encoding="UTF-8" standalone="no"?>
<!DOCTYPE svg PUBLIC "-//W3C//DTD SVG 1.1//EN"
 "http://www.w3.org/Graphics/SVG/1.1/DTD/svg11.dtd">
<!-- Generated by graphviz version 2.26.3 (20100126.1600)
 -->
<!-- Title: Perl Pages: 1 -->
<svg width="82pt" height="194pt"
 viewBox="0.00 0.00 82.00 194.00" xmlns="http://www.w3.org/2000/svg" xmlns:xlink="http://www.w3.org/1999/xlink">
<g id="graph1" class="graph" transform="scale(1 1) rotate(0) translate(4 190)">
<title>Perl</title>
<polygon fill="white" stroke="white" points="-4,5 -4,-190 79,-190 79,5 -4,5"/>
<!-- node.1 -->
<g id="node1" class="node"><title>node.1</title>
<ellipse fill="none" stroke="black" cx="37" cy="-167" rx="36.977" ry="19.0919"/>
<text text-anchor="middle" x="37" y="-163.9" font-family="Times Roman,serif" font-size="14.00">node.1</text>
</g>
<!-- node.2 -->
<g id="node2" class="node"><title>node.2</title>
<ellipse fill="none" stroke="black" cx="37" cy="-93" rx="36.977" ry="19.0919"/>
<text text-anchor="middle" x="37" y="-89.9" font-family="Times Roman,serif" font-size="14.00">node.2</text>
</g>
<!-- node.1&#45;&gt;node.2 -->
<g id="edge2" class="edge"><title>node.1&#45;&gt;node.2</title>
<path fill="none" stroke="grey" d="M31.0118,-147.943C30.2883,-140.088 30.0801,-130.81 30.3874,-122.136"/>
<polygon fill="grey" stroke="grey" points="33.8907,-122.19 31.0177,-111.992 26.9042,-121.756 33.8907,-122.19"/>
</g>
<!-- node.1&#45;&gt;node.2 -->
<g id="edge4" class="edge"><title>node.1&#45;&gt;node.2</title>
<path fill="none" stroke="grey" d="M42.9882,-147.943C43.7117,-140.088 43.9199,-130.81 43.6126,-122.136"/>
<polygon fill="grey" stroke="grey" points="47.0958,-121.756 42.9823,-111.992 40.1093,-122.19 47.0958,-121.756"/>
</g>
<!-- node.3 -->
<g id="node3" class="node"><title>node.3</title>
<ellipse fill="none" stroke="black" cx="37" cy="-19" rx="36.977" ry="19.0919"/>
<text text-anchor="middle" x="37" y="-15.9" font-family="Times Roman,serif" font-size="14.00">node.3</text>
</g>
<!-- node.2&#45;&gt;node.3 -->
<g id="edge6" class="edge"><title>node.2&#45;&gt;node.3</title>
<path fill="none" stroke="grey" d="M37,-73.9432C37,-66.1493 37,-56.9538 37,-48.3381"/>
<polygon fill="grey" stroke="grey" points="40.5001,-48.2494 37,-38.2495 33.5001,-48.2495 40.5001,-48.2494"/>
</g>
</g>
</svg>
