<?xml version="1.0" encoding="UTF-8" standalone="no"?>
<!DOCTYPE svg PUBLIC "-//W3C//DTD SVG 1.1//EN"
 "http://www.w3.org/Graphics/SVG/1.1/DTD/svg11.dtd">
<!-- Generated by graphviz version 2.26.3 (20100126.1600)
 -->
<!-- Title: Perl Pages: 1 -->
<svg width="82pt" height="120pt"
 viewBox="0.00 0.00 82.00 120.00" xmlns="http://www.w3.org/2000/svg" xmlns:xlink="http://www.w3.org/1999/xlink">
<g id="graph1" class="graph" transform="scale(1 1) rotate(0) translate(4 116)">
<title>Perl</title>
<polygon fill="white" stroke="white" points="-4,5 -4,-116 79,-116 79,5 -4,5"/>
<!-- node.1 -->
<g id="node1" class="node"><title>node.1</title>
<ellipse fill="none" stroke="black" cx="37" cy="-93" rx="36.977" ry="19.0919"/>
<text text-anchor="middle" x="37" y="-89.9" font-family="Times Roman,serif" font-size="14.00">node.1</text>
</g>
<!-- node.2 -->
<g id="node2" class="node"><title>node.2</title>
<ellipse fill="none" stroke="black" cx="37" cy="-19" rx="36.977" ry="19.0919"/>
<text text-anchor="middle" x="37" y="-15.9" font-family="Times Roman,serif" font-size="14.00">node.2</text>
</g>
<!-- node.1&#45;&gt;node.2 -->
<g id="edge2" class="edge"><title>node.1&#45;&gt;node.2</title>
<path fill="none" stroke="grey" d="M31.0118,-73.9432C30.2883,-66.0884 30.0801,-56.8101 30.3874,-48.1363"/>
<polygon fill="grey" stroke="grey" points="33.8907,-48.1901 31.0177,-37.9923 26.9042,-47.7559 33.8907,-48.1901"/>
</g>
<!-- node.1&#45;&gt;node.2 -->
<g id="edge4" class="edge"><title>node.1&#45;&gt;node.2</title>
<path fill="none" stroke="grey" d="M42.9882,-73.9432C43.7117,-66.0884 43.9199,-56.8101 43.6126,-48.1363"/>
<polygon fill="grey" stroke="grey" points="47.0958,-47.7559 42.9823,-37.9923 40.1093,-48.1901 47.0958,-47.7559"/>
</g>
</g>
</svg>
