<?xml version="1.0" encoding="UTF-8" standalone="no"?>
<!DOCTYPE svg PUBLIC "-//W3C//DTD SVG 1.1//EN"
 "http://www.w3.org/Graphics/SVG/1.1/DTD/svg11.dtd">
<!-- Generated by graphviz version 2.26.3 (20100126.1600)
 -->
<!-- Title: Perl Pages: 1 -->
<svg width="142pt" height="194pt"
 viewBox="0.00 0.00 142.00 194.00" xmlns="http://www.w3.org/2000/svg" xmlns:xlink="http://www.w3.org/1999/xlink">
<g id="graph1" class="graph" transform="scale(1 1) rotate(0) translate(4 190)">
<title>Perl</title>
<polygon fill="white" stroke="white" points="-4,5 -4,-190 139,-190 139,5 -4,5"/>
<!-- Murrumbeena -->
<g id="node1" class="node"><title>Murrumbeena</title>
<ellipse fill="none" stroke="blue" cx="67" cy="-167" rx="67.1751" ry="19.0919"/>
<text text-anchor="middle" x="67" y="-163.9" font-family="Times Roman,serif" font-size="14.00">Murrumbeena</text>
</g>
<!-- Carnegie -->
<g id="node2" class="node"><title>Carnegie</title>
<ellipse fill="none" stroke="crimson" cx="67" cy="-93" rx="45.9619" ry="19.0919"/>
<text text-anchor="middle" x="67" y="-89.9" font-family="Times Roman,serif" font-size="14.00">Carnegie</text>
</g>
<!-- Murrumbeena&#45;&gt;Carnegie -->
<g id="edge2" class="edge"><title>Murrumbeena&#45;&gt;Carnegie</title>
<path fill="none" stroke="green" d="M61.0118,-147.943C60.2883,-140.088 60.0801,-130.81 60.3874,-122.136"/>
<polygon fill="green" stroke="green" points="63.8907,-122.19 61.0177,-111.992 56.9042,-121.756 63.8907,-122.19"/>
</g>
<!-- Murrumbeena&#45;&gt;Carnegie -->
<g id="edge4" class="edge"><title>Murrumbeena&#45;&gt;Carnegie</title>
<path fill="none" stroke="red" d="M72.9882,-147.943C73.7117,-140.088 73.9199,-130.81 73.6126,-122.136"/>
<polygon fill="red" stroke="red" points="77.0958,-121.756 72.9823,-111.992 70.1093,-122.19 77.0958,-121.756"/>
</g>
<!-- Chadstone -->
<g id="node3" class="node"><title>Chadstone</title>
<ellipse fill="none" stroke="blueviolet" cx="67" cy="-19" rx="51.8276" ry="19.0919"/>
<text text-anchor="middle" x="67" y="-15.9" font-family="Times Roman,serif" font-size="14.00">Chadstone</text>
</g>
<!-- Carnegie&#45;&gt;Chadstone -->
<g id="edge6" class="edge"><title>Carnegie&#45;&gt;Chadstone</title>
<path fill="none" stroke="brown" d="M67,-73.9432C67,-66.1493 67,-56.9538 67,-48.3381"/>
<polygon fill="brown" stroke="brown" points="70.5001,-48.2494 67,-38.2495 63.5001,-48.2495 70.5001,-48.2494"/>
</g>
</g>
</svg>
