<?xml version="1.0" encoding="UTF-8" standalone="no"?>
<!DOCTYPE svg PUBLIC "-//W3C//DTD SVG 1.1//EN"
 "http://www.w3.org/Graphics/SVG/1.1/DTD/svg11.dtd">
<!-- Generated by graphviz version 2.26.3 (20100126.1600)
 -->
<!-- Title: Perl Pages: 1 -->
<svg width="82pt" height="192pt"
 viewBox="0.00 0.00 82.00 192.00" xmlns="http://www.w3.org/2000/svg" xmlns:xlink="http://www.w3.org/1999/xlink">
<g id="graph1" class="graph" transform="scale(1 1) rotate(0) translate(4 188)">
<title>Perl</title>
<polygon fill="white" stroke="white" points="-4,5 -4,-188 79,-188 79,5 -4,5"/>
<!-- node.1 -->
<g id="node1" class="node"><title>node.1</title>
<ellipse fill="none" stroke="red" cx="37" cy="-165" rx="36.977" ry="19.0919"/>
<text text-anchor="middle" x="37" y="-161.9" font-family="Times Roman,serif" font-size="14.00">node.1</text>
</g>
<!-- node.2 -->
<g id="node2" class="node"><title>node.2</title>
<ellipse fill="none" stroke="black" cx="37" cy="-91" rx="36.977" ry="19.0919"/>
<text text-anchor="middle" x="37" y="-87.9" font-family="Times Roman,serif" font-size="14.00">node.2</text>
</g>
<!-- node.1&#45;&gt;node.2 -->
<g id="edge2" class="edge"><title>node.1&#45;&gt;node.2</title>
<path fill="none" stroke="green" d="M31.0118,-145.943C30.2883,-138.088 30.0801,-128.81 30.3874,-120.136"/>
<polygon fill="green" stroke="green" points="33.8907,-120.19 31.0177,-109.992 26.9042,-119.756 33.8907,-120.19"/>
</g>
<!-- node.1&#45;&gt;node.2 -->
<g id="edge4" class="edge"><title>node.1&#45;&gt;node.2</title>
<path fill="none" stroke="red" d="M42.9882,-145.943C43.7117,-138.088 43.9199,-128.81 43.6126,-120.136"/>
<polygon fill="red" stroke="red" points="47.0958,-119.756 42.9823,-109.992 40.1093,-120.19 47.0958,-119.756"/>
</g>
<!-- dummy.suffix.node -->
<g id="node3" class="node"><title>dummy.suffix.node</title>
<ellipse fill="none" stroke="none" cx="37" cy="-18" rx="27" ry="18"/>
</g>
<!-- node.2&#45;&gt;dummy.suffix.node -->
<g id="edge6" class="edge"><title>node.2&#45;&gt;dummy.suffix.node</title>
<path fill="none" stroke="grey" d="M37,-71.8201C37,-64.0975 37,-55.0282 37,-46.5585"/>
<polygon fill="grey" stroke="grey" points="40.5001,-46.2973 37,-36.2973 33.5001,-46.2974 40.5001,-46.2973"/>
</g>
</g>
</svg>
