<?xml version="1.0" encoding="UTF-8" standalone="no"?>
<!DOCTYPE svg PUBLIC "-//W3C//DTD SVG 1.1//EN"
 "http://www.w3.org/Graphics/SVG/1.1/DTD/svg11.dtd">
<!-- Generated by graphviz version 2.30.1 (20130611.0131)
 -->
<!-- Title: Perl Pages: 1 -->
<svg width="76pt" height="116pt"
 viewBox="0.00 0.00 76.00 116.00" xmlns="http://www.w3.org/2000/svg" xmlns:xlink="http://www.w3.org/1999/xlink">
<g id="graph0" class="graph" transform="scale(1 1) rotate(0) translate(4 112)">
<title>Perl</title>
<polygon fill="white" stroke="white" points="-4,5 -4,-112 73,-112 73,5 -4,5"/>
<!-- node.1 -->
<g id="node1" class="node"><title>node.1</title>
<ellipse fill="none" stroke="red" cx="34" cy="-90" rx="34.1708" ry="18"/>
<text text-anchor="middle" x="34" y="-86.3" font-family="Times,serif" font-size="14.00">node.1</text>
</g>
<!-- node.2 -->
<g id="node2" class="node"><title>node.2</title>
<ellipse fill="none" stroke="black" cx="34" cy="-18" rx="34.1708" ry="18"/>
<text text-anchor="middle" x="34" y="-14.3" font-family="Times,serif" font-size="14.00">node.2</text>
</g>
<!-- node.1&#45;&gt;node.2 -->
<g id="edge1" class="edge"><title>node.1&#45;&gt;node.2</title>
<path fill="none" stroke="green" d="M28.1218,-72.055C27.2915,-64.2306 27.0543,-54.7484 27.4102,-45.9768"/>
<polygon fill="green" stroke="green" points="30.9164,-46.0131 28.1384,-35.789 23.9342,-45.514 30.9164,-46.0131"/>
</g>
<!-- node.1&#45;&gt;node.2 -->
<g id="edge2" class="edge"><title>node.1&#45;&gt;node.2</title>
<path fill="none" stroke="red" d="M39.8782,-72.055C40.7085,-64.2306 40.9457,-54.7484 40.5898,-45.9768"/>
<polygon fill="red" stroke="red" points="44.0658,-45.514 39.8616,-35.789 37.0836,-46.0131 44.0658,-45.514"/>
</g>
</g>
</svg>
