<?xml version="1.0" encoding="UTF-8" standalone="no"?>
<!DOCTYPE svg PUBLIC "-//W3C//DTD SVG 1.1//EN"
 "http://www.w3.org/Graphics/SVG/1.1/DTD/svg11.dtd">
<!-- Generated by graphviz version 2.26.3 (20100126.1600)
 -->
<!-- Title: Perl Pages: 1 -->
<svg width="82pt" height="192pt"
 viewBox="0.00 0.00 82.00 192.00" xmlns="http://www.w3.org/2000/svg" xmlns:xlink="http://www.w3.org/1999/xlink">
<g id="graph1" class="graph" transform="scale(1 1) rotate(0) translate(4 188)">
<title>Perl</title>
<polygon fill="white" stroke="white" points="-4,5 -4,-188 79,-188 79,5 -4,5"/>
<!-- node.1 -->
<g id="node1" class="node"><title>node.1</title>
<ellipse fill="none" stroke="red" cx="37" cy="-165" rx="36.977" ry="19.0919"/>
<text text-anchor="middle" x="37" y="-161.9" font-family="Times Roman,serif" font-size="14.00">node.1</text>
</g>
<g id="node2" class="node"><title></title>
<ellipse fill="none" stroke="none" cx="37" cy="-92" rx="27" ry="18"/>
</g>
<!-- node.1&#45;&gt; -->
<g id="edge2" class="edge"><title>node.1&#45;&gt;</title>
<path fill="none" stroke="grey" d="M37,-145.82C37,-138.097 37,-129.028 37,-120.558"/>
<polygon fill="grey" stroke="grey" points="40.5001,-120.297 37,-110.297 33.5001,-120.297 40.5001,-120.297"/>
</g>
<!-- node.2 -->
<g id="node3" class="node"><title>node.2</title>
<ellipse fill="none" stroke="red" cx="37" cy="-19" rx="36.977" ry="19.0919"/>
<text text-anchor="middle" x="37" y="-15.9" font-family="Times Roman,serif" font-size="14.00">node.2</text>
</g>
<!-- &#45;&gt;node.2 -->
<g id="edge4" class="edge"><title>&#45;&gt;node.2</title>
<path fill="none" stroke="grey" d="M37,-73.9551C37,-66.2107 37,-56.9622 37,-48.2811"/>
<polygon fill="grey" stroke="grey" points="40.5001,-48.1128 37,-38.1128 33.5001,-48.1129 40.5001,-48.1128"/>
</g>
</g>
</svg>
