<?xml version="1.0" encoding="UTF-8" standalone="no"?>
<!DOCTYPE svg PUBLIC "-//W3C//DTD SVG 1.1//EN"
 "http://www.w3.org/Graphics/SVG/1.1/DTD/svg11.dtd">
<!-- Generated by graphviz version 2.29.20121107.0545 (20121107.0545)
 -->
<!-- Title: Perl Pages: 1 -->
<svg width="76pt" height="188pt"
 viewBox="0.00 0.00 76.00 188.00" xmlns="http://www.w3.org/2000/svg" xmlns:xlink="http://www.w3.org/1999/xlink">
<g id="graph0" class="graph" transform="scale(1 1) rotate(0) translate(4 184)">
<title>Perl</title>
<polygon fill="white" stroke="white" points="-4,5 -4,-184 73,-184 73,5 -4,5"/>
<!-- node.1 -->
<g id="node1" class="node"><title>node.1</title>
<ellipse fill="none" stroke="black" cx="34" cy="-162" rx="34.1708" ry="18"/>
<text text-anchor="middle" x="34" y="-158.3" font-family="Times,serif" font-size="14.00">node.1</text>
</g>
<g id="node2" class="node"><title></title>
<ellipse fill="none" stroke="none" cx="34" cy="-90" rx="27" ry="18"/>
</g>
<!-- node.1&#45;&gt; -->
<g id="edge1" class="edge"><title>node.1&#45;&gt;</title>
<path fill="none" stroke="grey" d="M34,-143.697C34,-135.983 34,-126.712 34,-118.112"/>
<polygon fill="grey" stroke="grey" points="37.5001,-118.104 34,-108.104 30.5001,-118.104 37.5001,-118.104"/>
</g>
<!-- node.2 -->
<g id="node3" class="node"><title>node.2</title>
<ellipse fill="none" stroke="black" cx="34" cy="-18" rx="34.1708" ry="18"/>
<text text-anchor="middle" x="34" y="-14.3" font-family="Times,serif" font-size="14.00">node.2</text>
</g>
<!-- &#45;&gt;node.2 -->
<g id="edge2" class="edge"><title>&#45;&gt;node.2</title>
<path fill="none" stroke="grey" d="M34,-71.6966C34,-63.9827 34,-54.7125 34,-46.1124"/>
<polygon fill="grey" stroke="grey" points="37.5001,-46.1043 34,-36.1043 30.5001,-46.1044 37.5001,-46.1043"/>
</g>
</g>
</svg>
