<?xml version="1.0" encoding="UTF-8" standalone="no"?>
<!DOCTYPE svg PUBLIC "-//W3C//DTD SVG 1.1//EN"
 "http://www.w3.org/Graphics/SVG/1.1/DTD/svg11.dtd">
<!-- Generated by graphviz version 2.30.1 (20130611.0131)
 -->
<!-- Title: Perl Pages: 1 -->
<svg width="108pt" height="206pt"
 viewBox="0.00 0.00 108.00 206.00" xmlns="http://www.w3.org/2000/svg" xmlns:xlink="http://www.w3.org/1999/xlink">
<g id="graph0" class="graph" transform="scale(1 1) rotate(0) translate(4 202)">
<title>Perl</title>
<polygon fill="white" stroke="white" points="-4,5 -4,-202 105,-202 105,5 -4,5"/>
<!-- node.1 -->
<g id="node1" class="node"><title>node.1</title>
<ellipse fill="none" stroke="red" cx="50" cy="-180" rx="34.1708" ry="18"/>
<text text-anchor="middle" x="50" y="-176.3" font-family="Times,serif" font-size="14.00">node.1</text>
</g>
<g id="node2" class="node"><title></title>
<ellipse fill="none" stroke="none" cx="50" cy="-92" rx="50.5427" ry="18"/>
<text text-anchor="middle" x="50" y="-88.3" font-family="Times,serif" font-size="14.00">Some node</text>
</g>
<!-- node.1&#45;&gt; -->
<g id="edge1" class="edge"><title>node.1&#45;&gt;</title>
<path fill="none" stroke="green" d="M24.3112,-155.259C21.7522,-151.741 19.5364,-147.957 18,-144 14.0426,-133.807 18.6627,-123.428 25.5111,-114.718"/>
<polygon fill="none" stroke="green" points="24.3394,-155.292 31.2822,-157.241 32.1533,-164.4 25.2105,-162.45 24.3394,-155.292"/>
<ellipse fill="none" stroke="green" cx="28.1608" cy="-111.701" rx="4.00002" ry="4.00002"/>
<text text-anchor="middle" x="23" y="-132.3" font-family="Times,serif" font-size="14.00">A</text>
</g>
<!-- node.1&#45;&gt; -->
<g id="edge2" class="edge"><title>node.1&#45;&gt;</title>
<path fill="none" stroke="blue" stroke-width="3" d="M50,-161.597C50,-149.746 50,-133.817 50,-120.292"/>
<polygon fill="blue" stroke="blue" points="53.5001,-120.084 50,-110.084 46.5001,-120.084 53.5001,-120.084"/>
<text text-anchor="middle" x="55" y="-132.3" font-family="Times,serif" font-size="14.00">B</text>
</g>
<!-- node.1&#45;&gt; -->
<g id="edge3" class="edge"><title>node.1&#45;&gt;</title>
<path fill="none" stroke="maroon" stroke-width="5" d="M60.9106,-144.568C60.9412,-144.378 60.971,-144.189 61,-144 62.0785,-136.971 62.0785,-135.029 61,-128 60.5885,-125.318 60.0095,-122.56 59.33,-119.825"/>
<polygon fill="maroon" stroke="maroon" points="52.193,-161.078 58.8999,-152.466 60.6725,-163.236 52.193,-161.078"/>
<ellipse fill="maroon" stroke="maroon" cx="59.8867" cy="-148.59" rx="4" ry="4"/>
<polygon fill="maroon" stroke="maroon" points="52.7061,-111.309 60.3918,-109.089 62.6123,-116.775 54.9266,-118.995 52.7061,-111.309"/>
<polyline fill="none" stroke="maroon" points="58.7694,-117.885 59.3245,-119.806 "/>
<text text-anchor="middle" x="66" y="-132.3" font-family="Times,serif" font-size="14.00">C</text>
</g>
<!-- node.2 -->
<g id="node3" class="node"><title>node.2</title>
<ellipse fill="none" stroke="red" cx="50" cy="-18" rx="34.1708" ry="18"/>
<text text-anchor="middle" x="50" y="-14.3" font-family="Times,serif" font-size="14.00">node.2</text>
</g>
<!-- &#45;&gt;node.2 -->
<g id="edge4" class="edge"><title>&#45;&gt;node.2</title>
<path fill="none" stroke="grey" d="M50,-73.937C50,-65.8072 50,-55.8761 50,-46.7047"/>
<polygon fill="grey" stroke="grey" points="53.5001,-46.4406 50,-36.4407 46.5001,-46.4407 53.5001,-46.4406"/>
</g>
</g>
</svg>
