<?xml version="1.0" encoding="UTF-8" standalone="no"?>
<!DOCTYPE svg PUBLIC "-//W3C//DTD SVG 1.1//EN"
 "http://www.w3.org/Graphics/SVG/1.1/DTD/svg11.dtd">
<!-- Generated by graphviz version 2.30.1 (20130611.0131)
 -->
<!-- Title: Perl Pages: 1 -->
<svg width="122pt" height="188pt"
 viewBox="0.00 0.00 122.00 188.00" xmlns="http://www.w3.org/2000/svg" xmlns:xlink="http://www.w3.org/1999/xlink">
<g id="graph0" class="graph" transform="scale(1 1) rotate(0) translate(4 184)">
<title>Perl</title>
<polygon fill="white" stroke="white" points="-4,5 -4,-184 119,-184 119,5 -4,5"/>
<!-- node.1 -->
<g id="node1" class="node"><title>node.1</title>
<ellipse fill="none" stroke="black" cx="57" cy="-162" rx="34.1708" ry="18"/>
<text text-anchor="middle" x="57" y="-158.3" font-family="Times,serif" font-size="14.00">node.1</text>
</g>
<g id="node2" class="node"><title></title>
<ellipse fill="none" stroke="red" cx="57" cy="-90" rx="57.2927" ry="18"/>
<text text-anchor="middle" x="57" y="-86.3" font-family="Times,serif" font-size="14.00">Anonymous!</text>
</g>
<!-- node.1&#45;&gt; -->
<g id="edge1" class="edge"><title>node.1&#45;&gt;</title>
<path fill="none" stroke="grey" d="M57,-143.697C57,-135.983 57,-126.712 57,-118.112"/>
<polygon fill="grey" stroke="grey" points="60.5001,-118.104 57,-108.104 53.5001,-118.104 60.5001,-118.104"/>
</g>
<!-- node.2 -->
<g id="node3" class="node"><title>node.2</title>
<ellipse fill="none" stroke="black" cx="57" cy="-18" rx="34.1708" ry="18"/>
<text text-anchor="middle" x="57" y="-14.3" font-family="Times,serif" font-size="14.00">node.2</text>
</g>
<!-- &#45;&gt;node.2 -->
<g id="edge2" class="edge"><title>&#45;&gt;node.2</title>
<path fill="none" stroke="grey" d="M57,-71.6966C57,-63.9827 57,-54.7125 57,-46.1124"/>
<polygon fill="grey" stroke="grey" points="60.5001,-46.1043 57,-36.1043 53.5001,-46.1044 60.5001,-46.1043"/>
</g>
</g>
</svg>
