<?xml version="1.0" encoding="UTF-8" standalone="no"?>
<!DOCTYPE svg PUBLIC "-//W3C//DTD SVG 1.1//EN"
 "http://www.w3.org/Graphics/SVG/1.1/DTD/svg11.dtd">
<!-- Generated by graphviz version 2.29.20121107.0545 (20121107.0545)
 -->
<!-- Title: Perl Pages: 1 -->
<svg width="164pt" height="470pt"
 viewBox="0.00 0.00 164.00 470.00" xmlns="http://www.w3.org/2000/svg" xmlns:xlink="http://www.w3.org/1999/xlink">
<g id="graph0" class="graph" transform="scale(1 1) rotate(0) translate(4 466)">
<title>Perl</title>
<polygon fill="white" stroke="white" points="-4,5 -4,-466 161,-466 161,5 -4,5"/>
<g id="clust1" class="cluster"><title>cluster_1</title>
<polygon fill="cornflowerblue" stroke="black" points="13,-307 13,-454 143,-454 143,-307 13,-307"/>
<text text-anchor="middle" x="78" y="-438.8" font-family="Times,serif" font-size="14.00">Locale</text>
</g>
<g id="clust2" class="cluster"><title>cluster_2</title>
<polygon fill="lightblue" stroke="black" points="8,-8 8,-299 148,-299 148,-8 8,-8"/>
<text text-anchor="middle" x="78" y="-283.8" font-family="Times,serif" font-size="14.00">Home</text>
</g>
<!-- Solar system -->
<g id="node1" class="node"><title>Solar system</title>
<ellipse fill="none" stroke="black" cx="78" cy="-405" rx="56.3173" ry="18"/>
<text text-anchor="middle" x="78" y="-401.3" font-family="Times,serif" font-size="14.00">Solar system</text>
</g>
<!-- Earth -->
<g id="node2" class="node"><title>Earth</title>
<ellipse fill="none" stroke="black" cx="78" cy="-333" rx="29.3479" ry="18"/>
<text text-anchor="middle" x="78" y="-329.3" font-family="Times,serif" font-size="14.00">Earth</text>
</g>
<!-- Solar system&#45;&gt;Earth -->
<g id="edge1" class="edge"><title>Solar system&#45;&gt;Earth</title>
<path fill="none" stroke="grey" d="M78,-386.697C78,-379.576 78,-371.129 78,-363.108"/>
<polygon fill="grey" stroke="grey" points="78.0001,-363.104 74,-357.104 78,-351.104 82,-357.104 78.0001,-363.104"/>
</g>
<!-- Australia -->
<g id="node3" class="node"><title>Australia</title>
<ellipse fill="none" stroke="black" cx="78" cy="-250" rx="42.3456" ry="18"/>
<text text-anchor="middle" x="78" y="-246.3" font-family="Times,serif" font-size="14.00">Australia</text>
</g>
<!-- Earth&#45;&gt;Australia -->
<g id="edge2" class="edge"><title>Earth&#45;&gt;Australia</title>
<path fill="none" stroke="grey" d="M78,-314.822C78,-304.19 78,-290.306 78,-278.204"/>
<polygon fill="grey" stroke="grey" points="81.5001,-278.153 78,-268.153 74.5001,-278.153 81.5001,-278.153"/>
</g>
<!-- Victoria -->
<g id="node4" class="node"><title>Victoria</title>
<ellipse fill="none" stroke="black" cx="78" cy="-178" rx="39.4691" ry="18"/>
<text text-anchor="middle" x="78" y="-174.3" font-family="Times,serif" font-size="14.00">Victoria</text>
</g>
<!-- Australia&#45;&gt;Victoria -->
<g id="edge3" class="edge"><title>Australia&#45;&gt;Victoria</title>
<path fill="none" stroke="grey" d="M78,-231.697C78,-223.983 78,-214.712 78,-206.112"/>
<polygon fill="grey" stroke="grey" points="81.5001,-206.104 78,-196.104 74.5001,-206.104 81.5001,-206.104"/>
</g>
<!-- Melbourne -->
<g id="node5" class="node"><title>Melbourne</title>
<ellipse fill="none" stroke="black" cx="78" cy="-106" rx="50.0684" ry="18"/>
<text text-anchor="middle" x="78" y="-102.3" font-family="Times,serif" font-size="14.00">Melbourne</text>
</g>
<!-- Victoria&#45;&gt;Melbourne -->
<g id="edge4" class="edge"><title>Victoria&#45;&gt;Melbourne</title>
<path fill="none" stroke="grey" d="M78,-159.697C78,-151.983 78,-142.712 78,-134.112"/>
<polygon fill="grey" stroke="grey" points="81.5001,-134.104 78,-124.104 74.5001,-134.104 81.5001,-134.104"/>
</g>
<!-- Murrumbeena -->
<g id="node6" class="node"><title>Murrumbeena</title>
<ellipse fill="none" stroke="black" cx="78" cy="-34" rx="61.6163" ry="18"/>
<text text-anchor="middle" x="78" y="-30.3" font-family="Times,serif" font-size="14.00">Murrumbeena</text>
</g>
<!-- Melbourne&#45;&gt;Murrumbeena -->
<g id="edge5" class="edge"><title>Melbourne&#45;&gt;Murrumbeena</title>
<path fill="none" stroke="grey" d="M78,-87.6966C78,-79.9827 78,-70.7125 78,-62.1124"/>
<polygon fill="grey" stroke="grey" points="81.5001,-62.1043 78,-52.1043 74.5001,-62.1044 81.5001,-62.1043"/>
</g>
</g>
</svg>
