<?xml version="1.0" encoding="UTF-8" standalone="no"?>
<!DOCTYPE svg PUBLIC "-//W3C//DTD SVG 1.1//EN"
 "http://www.w3.org/Graphics/SVG/1.1/DTD/svg11.dtd">
<!-- Generated by graphviz version 2.29.20121107.0545 (20121107.0545)
 -->
<!-- Title: Perl Pages: 1 -->
<svg width="210pt" height="171pt"
 viewBox="0.00 0.00 210.00 171.00" xmlns="http://www.w3.org/2000/svg" xmlns:xlink="http://www.w3.org/1999/xlink">
<g id="graph0" class="graph" transform="scale(1 1) rotate(0) translate(4 167)">
<title>Perl</title>
<polygon fill="white" stroke="white" points="-4,5 -4,-167 207,-167 207,5 -4,5"/>
<g id="clust1" class="cluster"><title>cluster_1</title>
<polygon fill="cornflowerblue" stroke="black" points="8,-8 8,-155 138,-155 138,-8 8,-8"/>
<text text-anchor="middle" x="73" y="-139.8" font-family="Times,serif" font-size="14.00">Locale</text>
</g>
<!-- Solar system -->
<g id="node1" class="node"><title>Solar system</title>
<ellipse fill="none" stroke="black" cx="73" cy="-106" rx="56.3173" ry="18"/>
<text text-anchor="middle" x="73" y="-102.3" font-family="Times,serif" font-size="14.00">Solar system</text>
</g>
<!-- Earth -->
<g id="node2" class="node"><title>Earth</title>
<ellipse fill="none" stroke="black" cx="73" cy="-34" rx="29.3479" ry="18"/>
<text text-anchor="middle" x="73" y="-30.3" font-family="Times,serif" font-size="14.00">Earth</text>
</g>
<!-- Solar system&#45;&gt;Earth -->
<g id="edge1" class="edge"><title>Solar system&#45;&gt;Earth</title>
<path fill="none" stroke="grey" d="M73,-87.6966C73,-80.5761 73,-72.1294 73,-64.1079"/>
<polygon fill="grey" stroke="grey" points="73.0001,-64.1043 69,-58.1044 73,-52.1043 77,-58.1043 73.0001,-64.1043"/>
</g>
<!-- Sol -->
<g id="node3" class="node"><title>Sol</title>
<ellipse fill="none" stroke="black" cx="175" cy="-106" rx="27" ry="18"/>
<text text-anchor="middle" x="175" y="-102.3" font-family="Times,serif" font-size="14.00">Sol</text>
</g>
</g>
</svg>
