<?xml version="1.0" encoding="UTF-8" standalone="no"?>
<!DOCTYPE svg PUBLIC "-//W3C//DTD SVG 1.1//EN"
 "http://www.w3.org/Graphics/SVG/1.1/DTD/svg11.dtd">
<!-- Generated by graphviz version 2.30.1 (20130611.0131)
 -->
<!-- Title: Perl Pages: 1 -->
<svg width="154pt" height="279pt"
 viewBox="0.00 0.00 154.00 279.00" xmlns="http://www.w3.org/2000/svg" xmlns:xlink="http://www.w3.org/1999/xlink">
<g id="graph0" class="graph" transform="scale(1 1) rotate(0) translate(4 275)">
<title>Perl</title>
<polygon fill="white" stroke="white" points="-4,5 -4,-275 151,-275 151,5 -4,5"/>
<g id="clust1" class="cluster"><title>cluster_1</title>
<polygon fill="cornflowerblue" stroke="black" points="8,-8 8,-155 138,-155 138,-8 8,-8"/>
<text text-anchor="middle" x="73" y="-139.8" font-family="Times,serif" font-size="14.00">Locale</text>
</g>
<!-- Andromeda -->
<g id="node1" class="node"><title>Andromeda</title>
<ellipse fill="none" stroke="black" cx="73" cy="-253" rx="52.4675" ry="18"/>
<text text-anchor="middle" x="73" y="-249.3" font-family="Times,serif" font-size="14.00">Andromeda</text>
</g>
<!-- Milky\sWay -->
<g id="node2" class="node"><title>Milky\sWay</title>
<ellipse fill="none" stroke="black" cx="73" cy="-181" rx="52.9443" ry="18"/>
<text text-anchor="middle" x="73" y="-177.3" font-family="Times,serif" font-size="14.00">MilkysWay</text>
</g>
<!-- Andromeda&#45;&gt;Milky\sWay -->
<g id="edge1" class="edge"><title>Andromeda&#45;&gt;Milky\sWay</title>
<path fill="none" stroke="grey" d="M73,-234.697C73,-226.983 73,-217.712 73,-209.112"/>
<polygon fill="grey" stroke="grey" points="76.5001,-209.104 73,-199.104 69.5001,-209.104 76.5001,-209.104"/>
</g>
<!-- Solar system -->
<g id="node3" class="node"><title>Solar system</title>
<ellipse fill="none" stroke="black" cx="73" cy="-106" rx="56.3173" ry="18"/>
<text text-anchor="middle" x="73" y="-102.3" font-family="Times,serif" font-size="14.00">Solar system</text>
</g>
<!-- Milky\sWay&#45;&gt;Solar system -->
<g id="edge2" class="edge"><title>Milky\sWay&#45;&gt;Solar system</title>
<path fill="none" stroke="grey" d="M73,-162.7C73,-154.245 73,-143.869 73,-134.373"/>
<polygon fill="grey" stroke="grey" points="76.5001,-134.176 73,-124.176 69.5001,-134.176 76.5001,-134.176"/>
</g>
<!-- Earth -->
<g id="node4" class="node"><title>Earth</title>
<ellipse fill="none" stroke="black" cx="73" cy="-34" rx="29.3479" ry="18"/>
<text text-anchor="middle" x="73" y="-30.3" font-family="Times,serif" font-size="14.00">Earth</text>
</g>
<!-- Solar system&#45;&gt;Earth -->
<g id="edge3" class="edge"><title>Solar system&#45;&gt;Earth</title>
<path fill="none" stroke="grey" d="M73,-87.6966C73,-80.5761 73,-72.1294 73,-64.1079"/>
<polygon fill="grey" stroke="grey" points="73.0001,-64.1043 69,-58.1044 73,-52.1043 77,-58.1043 73.0001,-64.1043"/>
</g>
</g>
</svg>
