<?xml version="1.0" encoding="UTF-8" standalone="no"?>
<!DOCTYPE svg PUBLIC "-//W3C//DTD SVG 1.1//EN"
 "http://www.w3.org/Graphics/SVG/1.1/DTD/svg11.dtd">
<!-- Generated by graphviz version 2.26.3 (20100126.1600)
 -->
<!-- Title: Perl Pages: 1 -->
<svg width="162pt" height="459pt"
 viewBox="0.00 0.00 162.00 459.00" xmlns="http://www.w3.org/2000/svg" xmlns:xlink="http://www.w3.org/1999/xlink">
<g id="graph1" class="graph" transform="scale(1 1) rotate(0) translate(4 455)">
<title>Perl</title>
<polygon fill="white" stroke="white" points="-4,5 -4,-455 159,-455 159,5 -4,5"/>
<g id="graph2" class="cluster"><title>cluster_1:</title>
<polygon fill="lightgreen" stroke="black" points="8,-288 8,-443 146,-443 146,-288 8,-288"/>
<text text-anchor="middle" x="77" y="-426.4" font-family="Times Roman,serif" font-size="14.00">Locale</text>
</g>
<!-- Solar system -->
<g id="node2" class="node"><title>Solar system</title>
<ellipse fill="none" stroke="black" cx="77" cy="-389" rx="61.0181" ry="19.0919"/>
<text text-anchor="middle" x="77" y="-385.9" font-family="Times Roman,serif" font-size="14.00">Solar system</text>
</g>
<!-- Earth -->
<g id="node3" class="node"><title>Earth</title>
<ellipse fill="none" stroke="black" cx="77" cy="-315" rx="32.0265" ry="19.0919"/>
<text text-anchor="middle" x="77" y="-311.9" font-family="Times Roman,serif" font-size="14.00">Earth</text>
</g>
<!-- Solar system&#45;&gt;Earth -->
<g id="edge3" class="edge"><title>Solar system&#45;&gt;Earth</title>
<path fill="none" stroke="grey" d="M77,-369.943C77,-362.749 77,-354.36 77,-346.336"/>
<polygon fill="grey" stroke="grey" points="77.0001,-346.249 73,-340.249 77,-334.249 81,-340.249 77.0001,-346.249"/>
</g>
<!-- Australia -->
<g id="node4" class="node"><title>Australia</title>
<ellipse fill="none" stroke="black" cx="77" cy="-241" rx="46.1672" ry="19.0919"/>
<text text-anchor="middle" x="77" y="-237.9" font-family="Times Roman,serif" font-size="14.00">Australia</text>
</g>
<!-- Earth&#45;&gt;Australia -->
<g id="edge5" class="edge"><title>Earth&#45;&gt;Australia</title>
<path fill="none" stroke="grey" d="M77,-295.943C77,-288.149 77,-278.954 77,-270.338"/>
<polygon fill="grey" stroke="grey" points="80.5001,-270.249 77,-260.249 73.5001,-270.249 80.5001,-270.249"/>
</g>
<!-- Victoria -->
<g id="node5" class="node"><title>Victoria</title>
<ellipse fill="none" stroke="black" cx="77" cy="-167" rx="43.1335" ry="19.0919"/>
<text text-anchor="middle" x="77" y="-163.9" font-family="Times Roman,serif" font-size="14.00">Victoria</text>
</g>
<!-- Australia&#45;&gt;Victoria -->
<g id="edge7" class="edge"><title>Australia&#45;&gt;Victoria</title>
<path fill="none" stroke="grey" d="M77,-221.943C77,-214.149 77,-204.954 77,-196.338"/>
<polygon fill="grey" stroke="grey" points="80.5001,-196.249 77,-186.249 73.5001,-196.249 80.5001,-196.249"/>
</g>
<!-- Melbourne -->
<g id="node6" class="node"><title>Melbourne</title>
<ellipse fill="none" stroke="black" cx="77" cy="-93" rx="53.9477" ry="19.0919"/>
<text text-anchor="middle" x="77" y="-89.9" font-family="Times Roman,serif" font-size="14.00">Melbourne</text>
</g>
<!-- Victoria&#45;&gt;Melbourne -->
<g id="edge9" class="edge"><title>Victoria&#45;&gt;Melbourne</title>
<path fill="none" stroke="grey" d="M77,-147.943C77,-140.149 77,-130.954 77,-122.338"/>
<polygon fill="grey" stroke="grey" points="80.5001,-122.249 77,-112.249 73.5001,-122.249 80.5001,-122.249"/>
</g>
<!-- Murrumbeena -->
<g id="node7" class="node"><title>Murrumbeena</title>
<ellipse fill="none" stroke="black" cx="77" cy="-19" rx="67.1751" ry="19.0919"/>
<text text-anchor="middle" x="77" y="-15.9" font-family="Times Roman,serif" font-size="14.00">Murrumbeena</text>
</g>
<!-- Melbourne&#45;&gt;Murrumbeena -->
<g id="edge11" class="edge"><title>Melbourne&#45;&gt;Murrumbeena</title>
<path fill="none" stroke="grey" d="M77,-73.9432C77,-66.1493 77,-56.9538 77,-48.3381"/>
<polygon fill="grey" stroke="grey" points="80.5001,-48.2494 77,-38.2495 73.5001,-48.2495 80.5001,-48.2494"/>
</g>
</g>
</svg>
