<?xml version="1.0" encoding="UTF-8" standalone="no"?>
<!DOCTYPE svg PUBLIC "-//W3C//DTD SVG 1.1//EN"
 "http://www.w3.org/Graphics/SVG/1.1/DTD/svg11.dtd">
<!-- Generated by graphviz version 2.26.3 (20100126.1600)
 -->
<!-- Title: Perl Pages: 1 -->
<svg width="162pt" height="235pt"
 viewBox="0.00 0.00 162.00 235.00" xmlns="http://www.w3.org/2000/svg" xmlns:xlink="http://www.w3.org/1999/xlink">
<g id="graph1" class="graph" transform="scale(1 1) rotate(0) translate(4 231)">
<title>Perl</title>
<polygon fill="white" stroke="white" points="-4,5 -4,-231 159,-231 159,5 -4,5"/>
<g id="graph2" class="cluster"><title>cluster_1:</title>
<polygon fill="lightgreen" stroke="black" points="8,-64 8,-219 146,-219 146,-64 8,-64"/>
<text text-anchor="middle" x="77" y="-202.4" font-family="Times Roman,serif" font-size="14.00">Locale</text>
</g>
<!-- Solar system -->
<g id="node2" class="node"><title>Solar system</title>
<ellipse fill="none" stroke="black" cx="77" cy="-165" rx="61.0181" ry="19.0919"/>
<text text-anchor="middle" x="77" y="-161.9" font-family="Times Roman,serif" font-size="14.00">Solar system</text>
</g>
<!-- Earth -->
<g id="node3" class="node"><title>Earth</title>
<ellipse fill="none" stroke="black" cx="77" cy="-91" rx="32.0265" ry="19.0919"/>
<text text-anchor="middle" x="77" y="-87.9" font-family="Times Roman,serif" font-size="14.00">Earth</text>
</g>
<!-- Solar system&#45;&gt;Earth -->
<g id="edge3" class="edge"><title>Solar system&#45;&gt;Earth</title>
<path fill="none" stroke="grey" d="M77,-145.943C77,-138.749 77,-130.36 77,-122.336"/>
<polygon fill="grey" stroke="grey" points="77.0001,-122.249 73,-116.249 77,-110.249 81,-116.249 77.0001,-122.249"/>
</g>
<!-- dummy.suffix.node -->
<g id="node4" class="node"><title>dummy.suffix.node</title>
<ellipse fill="none" stroke="none" cx="77" cy="-18" rx="27" ry="18"/>
</g>
<!-- Earth&#45;&gt;dummy.suffix.node -->
<g id="edge5" class="edge"><title>Earth&#45;&gt;dummy.suffix.node</title>
<path fill="none" stroke="grey" d="M77,-71.8201C77,-64.0975 77,-55.0282 77,-46.5585"/>
<polygon fill="grey" stroke="grey" points="80.5001,-46.2973 77,-36.2973 73.5001,-46.2974 80.5001,-46.2973"/>
</g>
</g>
</svg>
