<?xml version="1.0" encoding="UTF-8" standalone="no"?>
<!DOCTYPE svg PUBLIC "-//W3C//DTD SVG 1.1//EN"
 "http://www.w3.org/Graphics/SVG/1.1/DTD/svg11.dtd">
<!-- Generated by graphviz version 2.26.3 (20100126.1600)
 -->
<!-- Title: Perl Pages: 1 -->
<svg width="218pt" height="179pt"
 viewBox="0.00 0.00 218.00 179.00" xmlns="http://www.w3.org/2000/svg" xmlns:xlink="http://www.w3.org/1999/xlink">
<g id="graph1" class="graph" transform="scale(1 1) rotate(0) translate(4 175)">
<title>Perl</title>
<polygon fill="white" stroke="white" points="-4,5 -4,-175 215,-175 215,5 -4,5"/>
<g id="graph2" class="cluster"><title>cluster_1</title>
<polygon fill="cornflowerblue" stroke="black" points="8,-8 8,-163 146,-163 146,-8 8,-8"/>
<text text-anchor="middle" x="77" y="-146.4" font-family="Times Roman,serif" font-size="14.00">Locale</text>
</g>
<!-- Solar system -->
<g id="node2" class="node"><title>Solar system</title>
<ellipse fill="none" stroke="black" cx="77" cy="-109" rx="61.0181" ry="19.0919"/>
<text text-anchor="middle" x="77" y="-105.9" font-family="Times Roman,serif" font-size="14.00">Solar system</text>
</g>
<!-- Earth -->
<g id="node3" class="node"><title>Earth</title>
<ellipse fill="none" stroke="black" cx="77" cy="-35" rx="32.0265" ry="19.0919"/>
<text text-anchor="middle" x="77" y="-31.9" font-family="Times Roman,serif" font-size="14.00">Earth</text>
</g>
<!-- Solar system&#45;&gt;Earth -->
<g id="edge3" class="edge"><title>Solar system&#45;&gt;Earth</title>
<path fill="none" stroke="grey" d="M77,-89.9432C77,-82.7488 77,-74.3602 77,-66.3357"/>
<polygon fill="grey" stroke="grey" points="77.0001,-66.2495 73,-60.2495 77,-54.2495 81,-60.2494 77.0001,-66.2495"/>
</g>
<!-- Sol -->
<g id="node4" class="node"><title>Sol</title>
<ellipse fill="none" stroke="black" cx="183" cy="-109" rx="27" ry="19.0919"/>
<text text-anchor="middle" x="183" y="-105.9" font-family="Times Roman,serif" font-size="14.00">Sol</text>
</g>
</g>
</svg>
