<?xml version="1.0" encoding="UTF-8" standalone="no"?>
<!DOCTYPE svg PUBLIC "-//W3C//DTD SVG 1.1//EN"
 "http://www.w3.org/Graphics/SVG/1.1/DTD/svg11.dtd">
<!-- Generated by graphviz version 2.29.20121107.0545 (20121107.0545)
 -->
<!-- Title: Perl Pages: 1 -->
<svg width="154pt" height="227pt"
 viewBox="0.00 0.00 154.00 227.00" xmlns="http://www.w3.org/2000/svg" xmlns:xlink="http://www.w3.org/1999/xlink">
<g id="graph0" class="graph" transform="scale(1 1) rotate(0) translate(4 223)">
<title>Perl</title>
<polygon fill="white" stroke="white" points="-4,5 -4,-223 151,-223 151,5 -4,5"/>
<g id="clust1" class="cluster"><title>cluster_1</title>
<polygon fill="cornflowerblue" stroke="black" points="8,-64 8,-211 138,-211 138,-64 8,-64"/>
<text text-anchor="middle" x="73" y="-195.8" font-family="Times,serif" font-size="14.00">Locale</text>
</g>
<!-- Solar system -->
<g id="node1" class="node"><title>Solar system</title>
<ellipse fill="none" stroke="black" cx="73" cy="-162" rx="56.3173" ry="18"/>
<text text-anchor="middle" x="73" y="-158.3" font-family="Times,serif" font-size="14.00">Solar system</text>
</g>
<!-- Earth -->
<g id="node2" class="node"><title>Earth</title>
<ellipse fill="none" stroke="black" cx="73" cy="-90" rx="29.3479" ry="18"/>
<text text-anchor="middle" x="73" y="-86.3" font-family="Times,serif" font-size="14.00">Earth</text>
</g>
<!-- Solar system&#45;&gt;Earth -->
<g id="edge1" class="edge"><title>Solar system&#45;&gt;Earth</title>
<path fill="none" stroke="grey" d="M73,-143.697C73,-136.576 73,-128.129 73,-120.108"/>
<polygon fill="grey" stroke="grey" points="73.0001,-120.104 69,-114.104 73,-108.104 77,-114.104 73.0001,-120.104"/>
</g>
<!-- Australia -->
<g id="node3" class="node"><title>Australia</title>
<ellipse fill="none" stroke="black" cx="73" cy="-18" rx="42.3456" ry="18"/>
<text text-anchor="middle" x="73" y="-14.3" font-family="Times,serif" font-size="14.00">Australia</text>
</g>
<!-- Earth&#45;&gt;Australia -->
<g id="edge2" class="edge"><title>Earth&#45;&gt;Australia</title>
<path fill="none" stroke="grey" d="M73,-71.6966C73,-63.9827 73,-54.7125 73,-46.1124"/>
<polygon fill="grey" stroke="grey" points="76.5001,-46.1043 73,-36.1043 69.5001,-46.1044 76.5001,-46.1043"/>
</g>
</g>
</svg>
