<?xml version="1.0" encoding="UTF-8" standalone="no"?>
<!DOCTYPE svg PUBLIC "-//W3C//DTD SVG 1.1//EN"
 "http://www.w3.org/Graphics/SVG/1.1/DTD/svg11.dtd">
<!-- Generated by graphviz version 2.29.20121107.0545 (20121107.0545)
 -->
<!-- Title: Perl Pages: 1 -->
<svg width="154pt" height="443pt"
 viewBox="0.00 0.00 154.00 443.00" xmlns="http://www.w3.org/2000/svg" xmlns:xlink="http://www.w3.org/1999/xlink">
<g id="graph0" class="graph" transform="scale(1 1) rotate(0) translate(4 439)">
<title>Perl</title>
<polygon fill="white" stroke="white" points="-4,5 -4,-439 151,-439 151,5 -4,5"/>
<g id="clust1" class="cluster"><title>cluster_1</title>
<polygon fill="cornflowerblue" stroke="black" points="8,-280 8,-427 138,-427 138,-280 8,-280"/>
<text text-anchor="middle" x="73" y="-411.8" font-family="Times,serif" font-size="14.00">Locale</text>
</g>
<!-- Solar system -->
<g id="node1" class="node"><title>Solar system</title>
<ellipse fill="none" stroke="black" cx="73" cy="-378" rx="56.3173" ry="18"/>
<text text-anchor="middle" x="73" y="-374.3" font-family="Times,serif" font-size="14.00">Solar system</text>
</g>
<!-- Earth -->
<g id="node2" class="node"><title>Earth</title>
<ellipse fill="none" stroke="black" cx="73" cy="-306" rx="29.3479" ry="18"/>
<text text-anchor="middle" x="73" y="-302.3" font-family="Times,serif" font-size="14.00">Earth</text>
</g>
<!-- Solar system&#45;&gt;Earth -->
<g id="edge1" class="edge"><title>Solar system&#45;&gt;Earth</title>
<path fill="none" stroke="grey" d="M73,-359.697C73,-352.576 73,-344.129 73,-336.108"/>
<polygon fill="grey" stroke="grey" points="73.0001,-336.104 69,-330.104 73,-324.104 77,-330.104 73.0001,-336.104"/>
</g>
<!-- Australia -->
<g id="node3" class="node"><title>Australia</title>
<ellipse fill="none" stroke="black" cx="73" cy="-234" rx="42.3456" ry="18"/>
<text text-anchor="middle" x="73" y="-230.3" font-family="Times,serif" font-size="14.00">Australia</text>
</g>
<!-- Earth&#45;&gt;Australia -->
<g id="edge2" class="edge"><title>Earth&#45;&gt;Australia</title>
<path fill="none" stroke="grey" d="M73,-287.697C73,-279.983 73,-270.712 73,-262.112"/>
<polygon fill="grey" stroke="grey" points="76.5001,-262.104 73,-252.104 69.5001,-262.104 76.5001,-262.104"/>
</g>
<!-- Victoria -->
<g id="node4" class="node"><title>Victoria</title>
<ellipse fill="none" stroke="black" cx="73" cy="-162" rx="39.4691" ry="18"/>
<text text-anchor="middle" x="73" y="-158.3" font-family="Times,serif" font-size="14.00">Victoria</text>
</g>
<!-- Australia&#45;&gt;Victoria -->
<g id="edge3" class="edge"><title>Australia&#45;&gt;Victoria</title>
<path fill="none" stroke="grey" d="M73,-215.697C73,-207.983 73,-198.712 73,-190.112"/>
<polygon fill="grey" stroke="grey" points="76.5001,-190.104 73,-180.104 69.5001,-190.104 76.5001,-190.104"/>
</g>
<!-- Melbourne -->
<g id="node5" class="node"><title>Melbourne</title>
<ellipse fill="none" stroke="black" cx="73" cy="-90" rx="50.0684" ry="18"/>
<text text-anchor="middle" x="73" y="-86.3" font-family="Times,serif" font-size="14.00">Melbourne</text>
</g>
<!-- Victoria&#45;&gt;Melbourne -->
<g id="edge4" class="edge"><title>Victoria&#45;&gt;Melbourne</title>
<path fill="none" stroke="grey" d="M73,-143.697C73,-135.983 73,-126.712 73,-118.112"/>
<polygon fill="grey" stroke="grey" points="76.5001,-118.104 73,-108.104 69.5001,-118.104 76.5001,-118.104"/>
</g>
<!-- Murrumbeena -->
<g id="node6" class="node"><title>Murrumbeena</title>
<ellipse fill="none" stroke="black" cx="73" cy="-18" rx="61.6163" ry="18"/>
<text text-anchor="middle" x="73" y="-14.3" font-family="Times,serif" font-size="14.00">Murrumbeena</text>
</g>
<!-- Melbourne&#45;&gt;Murrumbeena -->
<g id="edge5" class="edge"><title>Melbourne&#45;&gt;Murrumbeena</title>
<path fill="none" stroke="grey" d="M73,-71.6966C73,-63.9827 73,-54.7125 73,-46.1124"/>
<polygon fill="grey" stroke="grey" points="76.5001,-46.1043 73,-36.1043 69.5001,-46.1044 76.5001,-46.1043"/>
</g>
</g>
</svg>
