<?xml version="1.0" encoding="UTF-8" standalone="no"?>
<!DOCTYPE svg PUBLIC "-//W3C//DTD SVG 1.1//EN"
 "http://www.w3.org/Graphics/SVG/1.1/DTD/svg11.dtd">
<!-- Generated by graphviz version 2.26.3 (20100126.1600)
 -->
<!-- Title: Perl Pages: 1 -->
<svg width="162pt" height="217pt"
 viewBox="0.00 0.00 162.00 217.00" xmlns="http://www.w3.org/2000/svg" xmlns:xlink="http://www.w3.org/1999/xlink">
<g id="graph1" class="graph" transform="scale(1 1) rotate(0) translate(4 213)">
<title>Perl</title>
<polygon fill="white" stroke="white" points="-4,5 -4,-213 159,-213 159,5 -4,5"/>
<g id="graph2" class="cluster"><title>cluster_1:</title>
<polygon fill="lightgreen" stroke="black" points="8,-8 8,-163 146,-163 146,-8 8,-8"/>
<text text-anchor="middle" x="77" y="-146.4" font-family="Times Roman,serif" font-size="14.00">Locale</text>
</g>
<!-- Andromeda -->
<g id="node1" class="node"><title>Andromeda</title>
<ellipse fill="none" stroke="black" cx="77" cy="-190" rx="56.7776" ry="19.0919"/>
<text text-anchor="middle" x="77" y="-186.9" font-family="Times Roman,serif" font-size="14.00">Andromeda</text>
</g>
<!-- Solar system -->
<g id="node3" class="node"><title>Solar system</title>
<ellipse fill="none" stroke="black" cx="77" cy="-109" rx="61.0181" ry="19.0919"/>
<text text-anchor="middle" x="77" y="-105.9" font-family="Times Roman,serif" font-size="14.00">Solar system</text>
</g>
<!-- Andromeda&#45;&gt;Solar system -->
<g id="edge3" class="edge"><title>Andromeda&#45;&gt;Solar system</title>
<path fill="none" stroke="grey" d="M77,-170.804C77,-161.12 77,-149.164 77,-138.356"/>
<polygon fill="grey" stroke="grey" points="80.5001,-138.058 77,-128.058 73.5001,-138.058 80.5001,-138.058"/>
</g>
<!-- Earth -->
<g id="node4" class="node"><title>Earth</title>
<ellipse fill="none" stroke="black" cx="77" cy="-35" rx="32.0265" ry="19.0919"/>
<text text-anchor="middle" x="77" y="-31.9" font-family="Times Roman,serif" font-size="14.00">Earth</text>
</g>
<!-- Solar system&#45;&gt;Earth -->
<g id="edge5" class="edge"><title>Solar system&#45;&gt;Earth</title>
<path fill="none" stroke="grey" d="M77,-89.9432C77,-82.7488 77,-74.3602 77,-66.3357"/>
<polygon fill="grey" stroke="grey" points="77.0001,-66.2495 73,-60.2495 77,-54.2495 81,-60.2494 77.0001,-66.2495"/>
</g>
</g>
</svg>
