<?xml version="1.0" encoding="UTF-8" standalone="no"?>
<!DOCTYPE svg PUBLIC "-//W3C//DTD SVG 1.1//EN"
 "http://www.w3.org/Graphics/SVG/1.1/DTD/svg11.dtd">
<!-- Generated by graphviz version 2.26.3 (20100126.1600)
 -->
<!-- Title: Perl Pages: 1 -->
<svg width="174pt" height="490pt"
 viewBox="0.00 0.00 174.00 490.00" xmlns="http://www.w3.org/2000/svg" xmlns:xlink="http://www.w3.org/1999/xlink">
<g id="graph1" class="graph" transform="scale(1 1) rotate(0) translate(4 486)">
<title>Perl</title>
<polygon fill="white" stroke="white" points="-4,5 -4,-486 171,-486 171,5 -4,5"/>
<g id="graph2" class="cluster"><title>cluster_1</title>
<polygon fill="lightgreen" stroke="black" points="14,-319 14,-474 152,-474 152,-319 14,-319"/>
<text text-anchor="middle" x="83" y="-457.4" font-family="Times Roman,serif" font-size="14.00">Locale</text>
</g>
<g id="graph3" class="cluster"><title>cluster_2</title>
<polygon fill="lightblue" stroke="black" points="8,-8 8,-311 158,-311 158,-8 8,-8"/>
<text text-anchor="middle" x="83" y="-294.4" font-family="Times Roman,serif" font-size="14.00">Home</text>
</g>
<!-- Solar system -->
<g id="node2" class="node"><title>Solar system</title>
<ellipse fill="none" stroke="black" cx="83" cy="-420" rx="61.0181" ry="19.0919"/>
<text text-anchor="middle" x="83" y="-416.9" font-family="Times Roman,serif" font-size="14.00">Solar system</text>
</g>
<!-- Earth -->
<g id="node3" class="node"><title>Earth</title>
<ellipse fill="none" stroke="black" cx="83" cy="-346" rx="32.0265" ry="19.0919"/>
<text text-anchor="middle" x="83" y="-342.9" font-family="Times Roman,serif" font-size="14.00">Earth</text>
</g>
<!-- Solar system&#45;&gt;Earth -->
<g id="edge4" class="edge"><title>Solar system&#45;&gt;Earth</title>
<path fill="none" stroke="grey" d="M83,-400.943C83,-393.749 83,-385.36 83,-377.336"/>
<polygon fill="grey" stroke="grey" points="83.0001,-377.249 79,-371.249 83,-365.249 87,-371.249 83.0001,-377.249"/>
</g>
<!-- Australia -->
<g id="node5" class="node"><title>Australia</title>
<ellipse fill="none" stroke="black" cx="83" cy="-257" rx="46.1672" ry="19.0919"/>
<text text-anchor="middle" x="83" y="-253.9" font-family="Times Roman,serif" font-size="14.00">Australia</text>
</g>
<!-- Earth&#45;&gt;Australia -->
<g id="edge6" class="edge"><title>Earth&#45;&gt;Australia</title>
<path fill="none" stroke="grey" d="M83,-326.688C83,-314.909 83,-299.619 83,-286.363"/>
<polygon fill="grey" stroke="grey" points="86.5001,-286.274 83,-276.274 79.5001,-286.274 86.5001,-286.274"/>
</g>
<!-- Victoria -->
<g id="node6" class="node"><title>Victoria</title>
<ellipse fill="none" stroke="black" cx="83" cy="-183" rx="43.1335" ry="19.0919"/>
<text text-anchor="middle" x="83" y="-179.9" font-family="Times Roman,serif" font-size="14.00">Victoria</text>
</g>
<!-- Australia&#45;&gt;Victoria -->
<g id="edge8" class="edge"><title>Australia&#45;&gt;Victoria</title>
<path fill="none" stroke="grey" d="M83,-237.943C83,-230.149 83,-220.954 83,-212.338"/>
<polygon fill="grey" stroke="grey" points="86.5001,-212.249 83,-202.249 79.5001,-212.249 86.5001,-212.249"/>
</g>
<!-- Melbourne -->
<g id="node7" class="node"><title>Melbourne</title>
<ellipse fill="none" stroke="black" cx="83" cy="-109" rx="53.9477" ry="19.0919"/>
<text text-anchor="middle" x="83" y="-105.9" font-family="Times Roman,serif" font-size="14.00">Melbourne</text>
</g>
<!-- Victoria&#45;&gt;Melbourne -->
<g id="edge10" class="edge"><title>Victoria&#45;&gt;Melbourne</title>
<path fill="none" stroke="grey" d="M83,-163.943C83,-156.149 83,-146.954 83,-138.338"/>
<polygon fill="grey" stroke="grey" points="86.5001,-138.249 83,-128.249 79.5001,-138.249 86.5001,-138.249"/>
</g>
<!-- Murrumbeena -->
<g id="node8" class="node"><title>Murrumbeena</title>
<ellipse fill="none" stroke="black" cx="83" cy="-35" rx="67.1751" ry="19.0919"/>
<text text-anchor="middle" x="83" y="-31.9" font-family="Times Roman,serif" font-size="14.00">Murrumbeena</text>
</g>
<!-- Melbourne&#45;&gt;Murrumbeena -->
<g id="edge12" class="edge"><title>Melbourne&#45;&gt;Murrumbeena</title>
<path fill="none" stroke="grey" d="M83,-89.9432C83,-82.1493 83,-72.9538 83,-64.3381"/>
<polygon fill="grey" stroke="grey" points="86.5001,-64.2494 83,-54.2495 79.5001,-64.2495 86.5001,-64.2494"/>
</g>
</g>
</svg>
