<?xml version="1.0" encoding="UTF-8" standalone="no"?>
<!DOCTYPE svg PUBLIC "-//W3C//DTD SVG 1.1//EN"
 "http://www.w3.org/Graphics/SVG/1.1/DTD/svg11.dtd">
<!-- Generated by graphviz version 2.26.3 (20100126.1600)
 -->
<!-- Title: Perl Pages: 1 -->
<svg width="162pt" height="237pt"
 viewBox="0.00 0.00 162.00 237.00" xmlns="http://www.w3.org/2000/svg" xmlns:xlink="http://www.w3.org/1999/xlink">
<g id="graph1" class="graph" transform="scale(1 1) rotate(0) translate(4 233)">
<title>Perl</title>
<polygon fill="white" stroke="white" points="-4,5 -4,-233 159,-233 159,5 -4,5"/>
<g id="graph2" class="cluster"><title>cluster_1:</title>
<polygon fill="lightgreen" stroke="black" points="8,-66 8,-221 146,-221 146,-66 8,-66"/>
<text text-anchor="middle" x="77" y="-204.4" font-family="Times Roman,serif" font-size="14.00">Locale</text>
</g>
<!-- Solar system -->
<g id="node2" class="node"><title>Solar system</title>
<ellipse fill="none" stroke="black" cx="77" cy="-167" rx="61.0181" ry="19.0919"/>
<text text-anchor="middle" x="77" y="-163.9" font-family="Times Roman,serif" font-size="14.00">Solar system</text>
</g>
<!-- Earth -->
<g id="node3" class="node"><title>Earth</title>
<ellipse fill="none" stroke="black" cx="77" cy="-93" rx="32.0265" ry="19.0919"/>
<text text-anchor="middle" x="77" y="-89.9" font-family="Times Roman,serif" font-size="14.00">Earth</text>
</g>
<!-- Solar system&#45;&gt;Earth -->
<g id="edge3" class="edge"><title>Solar system&#45;&gt;Earth</title>
<path fill="none" stroke="grey" d="M77,-147.943C77,-140.749 77,-132.36 77,-124.336"/>
<polygon fill="grey" stroke="grey" points="77.0001,-124.249 73,-118.249 77,-112.249 81,-118.249 77.0001,-124.249"/>
</g>
<!-- Australia -->
<g id="node4" class="node"><title>Australia</title>
<ellipse fill="none" stroke="black" cx="77" cy="-19" rx="46.1672" ry="19.0919"/>
<text text-anchor="middle" x="77" y="-15.9" font-family="Times Roman,serif" font-size="14.00">Australia</text>
</g>
<!-- Earth&#45;&gt;Australia -->
<g id="edge5" class="edge"><title>Earth&#45;&gt;Australia</title>
<path fill="none" stroke="grey" d="M77,-73.9432C77,-66.1493 77,-56.9538 77,-48.3381"/>
<polygon fill="grey" stroke="grey" points="80.5001,-48.2494 77,-38.2495 73.5001,-48.2495 80.5001,-48.2494"/>
</g>
</g>
</svg>
