<?xml version="1.0" encoding="UTF-8" standalone="no"?>
<!DOCTYPE svg PUBLIC "-//W3C//DTD SVG 1.1//EN"
 "http://www.w3.org/Graphics/SVG/1.1/DTD/svg11.dtd">
<!-- Generated by graphviz version 2.30.1 (20130611.0131)
 -->
<!-- Title: Perl Pages: 1 -->
<svg width="210pt" height="171pt"
 viewBox="0.00 0.00 210.00 171.00" xmlns="http://www.w3.org/2000/svg" xmlns:xlink="http://www.w3.org/1999/xlink">
<g id="graph0" class="graph" transform="scale(1 1) rotate(0) translate(4 167)">
<title>Perl</title>
<polygon fill="white" stroke="white" points="-4,5 -4,-167 207,-167 207,5 -4,5"/>
<g id="clust1" class="cluster"><title>cluster_1</title>
<polygon fill="cornflowerblue" stroke="black" points="64,-8 64,-155 194,-155 194,-8 64,-8"/>
<text text-anchor="middle" x="129" y="-139.8" font-family="Times,serif" font-size="14.00">Locale</text>
</g>
<!-- Sol -->
<g id="node1" class="node"><title>Sol</title>
<ellipse fill="none" stroke="black" cx="27" cy="-106" rx="27" ry="18"/>
<text text-anchor="middle" x="27" y="-102.3" font-family="Times,serif" font-size="14.00">Sol</text>
</g>
<!-- Solar system -->
<g id="node2" class="node"><title>Solar system</title>
<ellipse fill="none" stroke="black" cx="129" cy="-106" rx="56.3173" ry="18"/>
<text text-anchor="middle" x="129" y="-102.3" font-family="Times,serif" font-size="14.00">Solar system</text>
</g>
<!-- Earth -->
<g id="node3" class="node"><title>Earth</title>
<ellipse fill="none" stroke="black" cx="129" cy="-34" rx="29.3479" ry="18"/>
<text text-anchor="middle" x="129" y="-30.3" font-family="Times,serif" font-size="14.00">Earth</text>
</g>
<!-- Solar system&#45;&gt;Earth -->
<g id="edge1" class="edge"><title>Solar system&#45;&gt;Earth</title>
<path fill="none" stroke="grey" d="M129,-87.6966C129,-80.5761 129,-72.1294 129,-64.1079"/>
<polygon fill="grey" stroke="grey" points="129,-64.1043 125,-58.1044 129,-52.1043 133,-58.1043 129,-64.1043"/>
</g>
</g>
</svg>
